<?xml version="1.0" encoding="UTF-8"?>
<!DOCTYPE svg PUBLIC "-//W3C//DTD SVG 1.1//EN" "http://www.w3.org/Graphics/SVG/1.1/DTD/svg11.dtd">
<!-- Creator: CorelDRAW Home & Student X6 -->
<svg xmlns="http://www.w3.org/2000/svg" xml:space="preserve" width="235mm" height="60mm" version="1.1" style="shape-rendering:geometricPrecision; text-rendering:geometricPrecision; image-rendering:optimizeQuality; fill-rule:evenodd; clip-rule:evenodd"
viewBox="0 0 235000 60000"
 xmlns:xlink="http://www.w3.org/1999/xlink">
 <defs>
  <style type="text/css">
   <![CDATA[
    .fil0 {fill:#FEFEFE}
    .fil1 {fill:#666666;fill-rule:nonzero}
    .fil2 {fill:#CC3300;fill-rule:nonzero}
   ]]>
  </style>
 </defs>
 <g id="Vrstva_x0020_1">
  <metadata id="CorelCorpID_0Corel-Layer"/>
  <polygon class="fil0" points="0,60000 235000,60000 235000,0 0,0 "/>
  <g id="_138834912">
   <path class="fil1" d="M17805 18147l0 -3387c0,-917 335,-1711 1005,-2381 670,-670 1464,-1005 2381,-1005 917,0 1711,335 2381,1005 670,670 1005,1464 1005,2381l0 3387 5080 0c917,0 1711,335 2381,1005 670,670 1005,1464 1005,2381 0,917 -335,1711 -1005,2381 -670,670 -1464,1005 -2381,1005l-5080 0 0 10160c0,917 335,1711 1005,2381 670,670 1464,1005 2381,1005l1693 0c917,0 1711,335 2381,1005 670,670 1005,1464 1005,2381 0,917 -335,1711 -1005,2381 -670,670 -1464,1005 -2381,1005l-1693 0c-1411,0 -2734,-265 -3969,-794 -1235,-529 -2311,-1252 -3228,-2170 -917,-917 -1640,-1993 -2170,-3228 -529,-1235 -794,-2558 -794,-3969l0 -10160 -2540 0c-917,0 -1711,-335 -2381,-1005 -670,-670 -1005,-1464 -1005,-2381 0,-917 335,-1711 1005,-2381 670,-670 1464,-1005 2381,-1005l2540 0zm28363 27093c-1870,0 -3625,-353 -5265,-1058 -1640,-706 -3078,-1676 -4313,-2910 -1235,-1235 -2205,-2672 -2910,-4313 -706,-1641 -1058,-3396 -1058,-5265 0,-1870 353,-3625 1058,-5265 706,-1640 1676,-3078 2910,-4313 1235,-1235 2672,-2205 4313,-2910 1640,-706 3396,-1058 5265,-1058 1870,0 3625,353 5265,1058 1640,706 3078,1676 4313,2910 1235,1235 2205,2672 2910,4313 706,1641 1058,3396 1058,5265 0,917 -335,1711 -1006,2381 -670,670 -1464,1005 -2381,1005l-16034 0c600,1023 1411,1843 2434,2461 1023,617 2170,926 3440,926l3387 0c917,0 1711,335 2381,1005 670,670 1005,1464 1005,2381 0,917 -335,1711 -1005,2381 -670,670 -1464,1005 -2381,1005l-3387 0zm0 -20320c-1270,0 -2417,309 -3440,926 -1023,617 -1834,1438 -2434,2461l11748 0c-600,-1023 -1420,-1843 -2461,-2461 -1041,-617 -2178,-926 -3413,-926zm38365 16351c-1341,1341 -2840,2337 -4498,2990 -1658,653 -3351,979 -5080,979 -1870,0 -3625,-353 -5265,-1058 -1640,-706 -3078,-1676 -4313,-2910 -1235,-1235 -2205,-2672 -2910,-4313 -706,-1641 -1058,-3396 -1058,-5265 0,-1870 353,-3625 1058,-5265 706,-1640 1676,-3078 2910,-4313 1235,-1235 2672,-2205 4313,-2910 1640,-706 3396,-1058 5265,-1058 1729,0 3422,326 5080,979 1658,653 3157,1649 4498,2990 670,670 1005,1464 1005,2381 0,917 -335,1711 -1005,2381 -670,670 -1464,1006 -2381,1006 -953,0 -1746,-335 -2381,-1006 -670,-706 -1420,-1208 -2249,-1508 -829,-300 -1685,-450 -2567,-450 -953,0 -1834,176 -2646,529 -811,353 -1526,838 -2143,1455 -617,617 -1103,1332 -1455,2143 -353,811 -529,1693 -529,2646 0,952 176,1834 529,2646 353,811 838,1526 1455,2143 617,617 1332,1102 2143,1455 811,353 1693,529 2646,529 882,0 1729,-159 2540,-476 811,-318 1570,-811 2275,-1482 670,-670 1464,-1006 2381,-1006 917,0 1711,335 2381,1006 670,670 1005,1464 1005,2381 0,917 -335,1711 -1005,2381zm31062 582c0,917 -335,1711 -1006,2381 -670,670 -1464,1005 -2381,1005 -917,0 -1711,-335 -2381,-1005 -670,-670 -1006,-1464 -1006,-2381l0 -10160c0,-953 -176,-1835 -529,-2646 -353,-811 -838,-1526 -1455,-2143 -617,-617 -1332,-1102 -2143,-1455 -811,-353 -1693,-529 -2646,-529 -953,0 -1834,176 -2646,529 -811,353 -1526,838 -2143,1455 -617,617 -1103,1332 -1455,2143 -353,811 -529,1693 -529,2646l0 10160c0,917 -335,1711 -1005,2381 -670,670 -1464,1005 -2381,1005 -917,0 -1711,-335 -2381,-1005 -670,-670 -1005,-1464 -1005,-2381l0 -30480c0,-917 335,-1711 1005,-2381 670,-670 1464,-1005 2381,-1005 917,0 1711,335 2381,1005 670,670 1005,1464 1005,2381l0 8625c988,-600 2055,-1058 3201,-1376 1147,-318 2337,-476 3572,-476 1870,0 3625,353 5265,1058 1640,706 3078,1676 4313,2910 1235,1235 2205,2672 2910,4313 706,1641 1058,3396 1058,5265l0 10160zm25823 -6773l0 -3387c0,-917 -335,-1711 -1005,-2381 -670,-670 -1464,-1005 -2381,-1005 -917,0 -1711,335 -2381,1005 -670,670 -1005,1464 -1005,2381 0,917 335,1711 1005,2381 670,670 1464,1005 2381,1005l3387 0zm16933 -3387c0,1411 -265,2734 -794,3969 -529,1235 -1252,2311 -2170,3228 -917,917 -1993,1640 -3228,2170 -1235,529 -2558,794 -3969,794l-10160 0c-1411,0 -2734,-265 -3969,-794 -1235,-529 -2311,-1252 -3228,-2170 -917,-917 -1640,-1993 -2170,-3228 -529,-1235 -794,-2558 -794,-3969 0,-1411 265,-2734 794,-3969 529,-1235 1252,-2311 2170,-3228 917,-917 1993,-1640 3228,-2170 1235,-529 2558,-794 3969,-794 1411,0 2734,265 3969,794 1235,529 2311,1252 3228,2170 917,917 1640,1993 2170,3228 529,1235 794,2558 794,3969l0 3387c917,0 1711,-335 2381,-1005 670,-670 1005,-1464 1005,-2381 0,-1870 -353,-3625 -1058,-5265 -706,-1640 -1676,-3078 -2911,-4313 -1235,-1235 -2672,-2205 -4313,-2910 -1640,-706 -3395,-1058 -5265,-1058 -1870,0 -3625,353 -5265,1058 -1640,706 -3078,1676 -4313,2910 -1235,1235 -2205,2672 -2910,4313 -706,1641 -1058,3396 -1058,5265 0,1870 353,3625 1058,5265 706,1640 1676,3078 2910,4313 1235,1235 2672,2205 4313,2910 1641,706 3396,1058 5265,1058l6773 0c917,0 1711,335 2381,1005 670,670 1005,1464 1005,2381 0,917 -335,1711 -1005,2381 -670,670 -1464,1005 -2381,1005l-6773 0c-2822,0 -5459,-529 -7911,-1588 -2452,-1058 -4604,-2514 -6456,-4366 -1852,-1852 -3307,-4004 -4366,-6456 -1058,-2452 -1588,-5089 -1588,-7911 0,-2787 529,-5415 1588,-7885 1058,-2470 2514,-4630 4366,-6482 1852,-1852 4004,-3307 6456,-4366 2452,-1058 5089,-1588 7911,-1588 2787,0 5415,529 7885,1588 2470,1058 4630,2514 6482,4366 1852,1852 3307,4013 4366,6482 1058,2469 1588,5098 1588,7885z"/>
   <path class="fil2" d="M180788 38467c917,0 1711,-335 2381,-1005 670,-670 1005,-1464 1005,-2381 0,-917 -335,-1711 -1005,-2381 -670,-670 -1464,-1005 -2381,-1005l-10160 0c-1411,0 -2734,-265 -3969,-794 -1235,-529 -2311,-1252 -3228,-2170 -917,-917 -1640,-1993 -2170,-3228 -529,-1235 -794,-2558 -794,-3969 0,-1411 265,-2734 794,-3969 529,-1235 1252,-2311 2170,-3228 917,-917 1993,-1640 3228,-2170 1235,-529 2558,-794 3969,-794l15240 0c917,0 1711,335 2381,1005 670,670 1005,1464 1005,2381 0,917 -335,1711 -1005,2381 -670,670 -1464,1005 -2381,1005l-15240 0c-917,0 -1711,335 -2381,1005 -670,670 -1005,1464 -1005,2381 0,917 335,1711 1005,2381 670,670 1464,1005 2381,1005l10160 0c1411,0 2734,265 3969,794 1235,529 2311,1252 3228,2170 917,917 1640,1993 2170,3228 529,1235 794,2558 794,3969 0,1411 -265,2734 -794,3969 -529,1235 -1252,2311 -2170,3228 -917,917 -1993,1640 -3228,2170 -1235,529 -2558,794 -3969,794l-16933 0c-917,0 -1711,-335 -2381,-1005 -670,-670 -1005,-1464 -1005,-2381 0,-917 335,-1711 1005,-2381 670,-670 1464,-1005 2381,-1005l16933 0zm42333 -8467c0,2117 -397,4101 -1191,5953 -794,1852 -1879,3466 -3254,4842 -1376,1376 -2990,2461 -4842,3254 -1852,794 -3837,1191 -5953,1191 -2117,0 -4101,-397 -5953,-1191 -1852,-794 -3466,-1879 -4842,-3254 -1376,-1376 -2461,-2990 -3254,-4842 -794,-1852 -1191,-3836 -1191,-5953l0 -15240c0,-917 335,-1711 1005,-2381 670,-670 1464,-1005 2381,-1005 917,0 1711,335 2381,1005 670,670 1005,1464 1005,2381l0 15240c0,1164 221,2258 662,3281 441,1023 1050,1923 1826,2699 776,776 1676,1385 2699,1826 1023,441 2117,662 3281,662 1164,0 2258,-221 3281,-662 1023,-441 1923,-1050 2699,-1826 776,-776 1385,-1676 1826,-2699 441,-1023 661,-2117 661,-3281l0 -15240c0,-917 335,-1711 1006,-2381 670,-670 1464,-1005 2381,-1005 917,0 1711,335 2381,1005 670,670 1006,1464 1006,2381l0 15240z"/>
  </g>
 </g>
</svg>
