<?xml version="1.0" encoding="windows-1252"?>
<!DOCTYPE svg PUBLIC "-//W3C//DTD SVG 1.0//EN" "http://www.w3.org/TR/2001/REC-SVG-20010904/DTD/svg10.dtd">
<!-- Creator: CorelDRAW -->
<svg xmlns="http://www.w3.org/2000/svg" xmlns:odm="http://product.corel.com/CGS/11/cddns/" xmlns:corel-charset="http://product.corel.com/CGS/11/cddns/" xml:space="preserve" width="8.26772in" height="11.6929in" style="shape-rendering:geometricPrecision; text-rendering:geometricPrecision; image-rendering:optimizeQuality; fill-rule:evenodd" viewBox="0 0 8268 11692">
 <defs>
  <style type="text/css">
   <![CDATA[
    .fil0 {fill:#CC3300}
   ]]>
  </style>
 </defs>
 <g id="Vrstva_x0020_1">
  <path class="fil0" d="M3025 4513l33 0c7,21 18,37 34,49 15,12 33,18 55,18 24,0 43,-7 58,-21 15,-14 22,-31 22,-52 0,-16 -5,-30 -16,-41 -12,-11 -37,-24 -77,-40 -2,-1 -6,-3 -11,-5 -33,-13 -55,-25 -67,-35 -11,-10 -20,-22 -26,-36 -6,-13 -9,-27 -9,-43 0,-33 11,-60 34,-80 22,-21 52,-31 88,-31 21,0 41,3 61,9 19,6 38,15 55,26l0 76 -30 0c-7,-23 -18,-40 -32,-52 -15,-11 -33,-17 -54,-17 -19,0 -35,6 -48,17 -13,12 -20,27 -20,44 0,31 26,55 76,74 8,3 14,5 18,7 39,14 67,31 84,50 17,19 25,43 25,72 0,37 -12,67 -35,89 -24,23 -56,34 -96,34 -21,0 -42,-3 -62,-9 -21,-6 -40,-15 -60,-27l0 -76z"/>
  <path class="fil0" d="M3456 4616c-37,0 -60,-5 -68,-13 -9,-9 -13,-32 -13,-69l0 -183 -53 0 0 -36 53 0 0 -80 50 0 0 80 68 0 0 36 -68 0 0 186c0,20 3,33 8,37 5,4 18,6 38,6l22 0 0 36 -37 0z"/>
  <path class="fil0" d="M3773 4616l-53 0 0 -21 -5 -1c-12,11 -24,19 -36,23 -12,5 -25,7 -41,7 -19,0 -36,-4 -51,-15 -14,-9 -25,-24 -32,-42 -3,-7 -4,-15 -5,-26 -2,-11 -2,-32 -2,-62l0 -164 51 0 0 183c0,32 4,54 12,65 8,12 22,18 42,18 11,0 21,-2 32,-7 11,-4 23,-12 36,-22l0 -237 52 0 0 301z"/>
  <path class="fil0" d="M4081 4616l-51 0 0 -23 -6 -3c-12,12 -23,21 -34,27 -12,5 -24,8 -37,8 -34,0 -61,-14 -81,-43 -20,-29 -30,-67 -30,-116 0,-49 10,-87 30,-116 20,-29 47,-44 80,-44 13,0 25,3 37,9 12,5 23,14 35,25l6 -1 0 -144 51 0 0 421m-51 -67l0 -167c-11,-11 -22,-18 -33,-23 -10,-5 -20,-8 -31,-8 -23,0 -41,10 -53,29 -12,19 -18,48 -18,86 0,37 6,66 18,85 12,19 30,29 53,29 11,0 21,-3 32,-8 10,-5 21,-13 32,-23z"/>
  <path class="fil0" d="M4390 4471l0 9 -187 0c0,33 8,58 22,75 14,16 35,25 63,25 15,0 28,-3 41,-8 13,-5 26,-14 40,-26l21 0 0 51c-20,10 -38,17 -55,22 -16,4 -32,6 -48,6 -45,0 -79,-13 -102,-40 -23,-27 -35,-65 -35,-116 0,-51 11,-91 34,-120 23,-28 54,-43 94,-43 34,0 61,11 81,33 21,22 31,52 31,89l0 43m-50 -35c0,-33 -5,-57 -15,-72 -10,-14 -27,-22 -49,-22 -23,0 -41,9 -53,26 -12,17 -19,42 -20,75l137 1 0 -8z"/>
  <path class="fil0" d="M4457 4315l53 0 0 20 5 1c12,-10 24,-18 36,-23 12,-4 26,-7 41,-7 29,0 52,10 67,29 16,19 23,47 23,83l0 34 0 164 -50 0 0 -183c0,-32 -5,-54 -13,-66 -8,-12 -22,-18 -42,-18 -11,0 -22,3 -33,7 -10,5 -22,12 -35,22l0 238 -52 0 0 -301z"/>
  <path class="fil0" d="M4872 4616c-37,0 -60,-5 -69,-13 -8,-9 -13,-32 -13,-69l0 -183 -52 0 0 -36 52 0 0 -80 51 0 0 80 68 0 0 36 -68 0 0 186c0,20 3,33 8,37 5,4 18,6 37,6l23 0 0 36 -37 0z"/>
  <path class="fil0" d="M4942 4546l27 0c7,13 17,23 29,30 13,6 27,10 42,10 18,0 32,-5 43,-14 11,-9 16,-20 16,-35 0,-22 -23,-41 -68,-55l-5 -2c-29,-9 -50,-20 -62,-34 -13,-13 -19,-30 -19,-51 0,-26 9,-47 29,-63 19,-16 45,-24 78,-24 13,0 27,2 41,5 15,3 30,7 45,13l0 59 -23 0c-9,-14 -18,-25 -29,-32 -12,-7 -25,-11 -40,-11 -14,0 -26,5 -35,13 -10,9 -15,19 -15,31 0,13 5,23 13,31 9,7 29,15 60,24 27,8 48,19 61,34 13,15 20,33 20,54 0,28 -10,51 -29,69 -20,18 -46,26 -77,26 -21,0 -40,-2 -57,-6 -17,-4 -32,-9 -45,-17l0 -55z"/>
  <path class="fil0" d="M5213 4195l51 0 0 202c0,10 0,21 -1,31 -1,10 -2,20 -3,29l12 6c6,-11 11,-20 16,-28 5,-8 10,-15 13,-21l72 -99 63 0 -106 127 0 7c9,9 18,20 26,35 2,2 2,3 3,4l78 128 -65 0 -71 -145 -12 0 -25 29 0 116 -51 0 0 -421z"/>
  <path class="fil0" d="M5634 4589c-11,11 -23,20 -37,26 -14,5 -28,8 -44,8 -26,0 -48,-8 -64,-25 -17,-17 -25,-39 -25,-66 0,-29 10,-51 31,-67 20,-16 56,-29 108,-39l31 -6 0 -24c0,-15 -5,-26 -15,-34 -11,-8 -26,-12 -45,-12 -13,0 -25,3 -37,9 -11,6 -22,15 -32,27l-24 0 0 -61c16,-6 32,-10 46,-13 15,-2 30,-4 44,-4 39,0 68,9 86,25 19,17 28,42 28,77l0 206 -51 0 0 -27m0 -134c-43,8 -72,18 -90,29 -17,12 -25,26 -25,45 0,14 5,27 15,36 11,10 24,15 40,15 10,0 20,-3 30,-7 10,-4 20,-11 30,-20l0 -98m42 -304l0 18c-20,11 -39,23 -55,36 -17,13 -32,26 -45,41l-35 0 0 -12c14,-11 27,-24 38,-38 11,-13 22,-29 31,-45l66 0z"/>
  <path class="fil0" d="M6149 4616l-52 0 0 -21 -5 -1c-12,11 -24,19 -36,23 -12,5 -26,7 -41,7 -20,0 -37,-4 -51,-15 -14,-9 -25,-24 -33,-42 -2,-7 -4,-15 -5,-26 -1,-11 -2,-32 -2,-62l0 -164 51 0 0 183c0,32 5,54 12,65 9,12 23,18 43,18 10,0 21,-2 32,-7 11,-4 23,-12 35,-22l0 -237 52 0 0 301z"/>
  <path class="fil0" d="M6233 4315l53 0 0 20 5 1c12,-10 24,-18 36,-23 12,-4 26,-7 41,-7 29,0 52,10 67,29 15,19 23,47 23,83l0 34 0 164 -50 0 0 -183c0,-32 -5,-54 -13,-66 -8,-12 -22,-18 -42,-18 -11,0 -22,3 -33,7 -11,5 -22,12 -35,22l0 238 -52 0 0 -301z"/>
  <path class="fil0" d="M6540 4195l66 0 0 50 -66 0 0 -50m56 120l0 301 -52 0 0 -301 52 0z"/>
  <path class="fil0" d="M6912 4471l0 9 -186 0c0,33 7,58 21,75 14,16 35,25 63,25 15,0 29,-3 42,-8 12,-5 25,-14 39,-26l21 0 0 51c-20,10 -38,17 -54,22 -16,4 -32,6 -48,6 -45,0 -79,-13 -103,-40 -23,-27 -35,-65 -35,-116 0,-51 12,-91 35,-120 22,-28 54,-43 93,-43 34,0 62,11 82,33 20,22 30,52 30,89l0 43m-50 -35c0,-33 -5,-57 -15,-72 -10,-14 -26,-22 -49,-22 -23,0 -41,9 -53,26 -12,17 -18,42 -19,75l136 1 0 -8z"/>
  <path class="fil0" d="M3321 5305c-21,17 -43,29 -64,37 -22,9 -43,13 -64,13 -53,0 -94,-19 -122,-55 -28,-37 -41,-91 -41,-160 0,-70 13,-123 41,-159 28,-37 69,-55 122,-55 18,0 39,4 60,12 22,7 44,19 68,34l0 74 -33 0c-9,-26 -22,-45 -37,-57 -16,-13 -35,-19 -58,-19 -36,0 -62,14 -79,43 -18,28 -26,70 -26,127 0,54 8,95 26,123 18,29 44,43 79,43 23,0 42,-7 58,-19 16,-13 28,-32 37,-58l33 0 0 76z"/>
  <path class="fil0" d="M3364 4934l62 0 68 247c4,16 8,32 11,48 4,16 7,32 10,49l9 0c2,-18 6,-35 9,-51 4,-16 8,-31 11,-46l68 -247 62 0 -131 412 -47 0 -132 -412z"/>
  <path class="fil0" d="M3788 4934l0 254c0,42 7,73 20,91 14,19 36,28 67,28 30,0 52,-9 66,-28 13,-18 20,-49 20,-91l0 -254 55 0 0 250c0,61 -11,105 -33,131 -22,27 -58,40 -108,40 -50,0 -86,-13 -108,-40 -22,-26 -33,-70 -33,-131l0 -250 54 0z"/>
  <path class="fil0" d="M4187 4981l-119 0 0 -47 292 0 0 47 -118 0 0 365 -55 0 0 -365z"/>
  <path class="fil0" d="M3182 4855l15 0c6,-16 13,-29 23,-39 9,-10 20,-18 34,-23l30 0 0 19c-13,8 -24,18 -35,31 -11,14 -20,28 -27,44l-66 0c-9,-18 -19,-34 -30,-47 -11,-13 -21,-23 -32,-28l0 -19 31 0c13,5 25,13 34,23 9,9 16,22 23,39z"/>
  <path class="fil0" d="M2060 3969l-1 -14 -2 -13 -2 -13 -4 -13 -5 -13 -6 -12 -7 -12 -8 -10 -8 -11 -10 -9 -10 -9 -11 -8 -12 -7 -12 -6 -12 -5 -14 -4 -13 -2 -13 -2 -13 -1 -14 1 -13 2 -14 2 -12 4 -13 5 -12 6 -12 7 -11 8 -10 9 -9 9 -9 11 -8 10 -7 12 -6 12 -5 13 -4 13 -2 13 -2 13 -1 14 1 13 2 13 2 14 4 13 5 12 6 12 7 12 8 11 9 10 9 10 10 9 11 7 12 7 12 6 13 5 12 4 14 3 13 1 14 1 13 -1 13 -1 13 -3 14 -4 12 -5 12 -6 12 -7 11 -7 10 -9 10 -10 8 -10 8 -11 7 -12 6 -12 5 -12 4 -13 2 -14 2 -13 1 -13z"/>
  <path class="fil0" d="M2473 4432l-22 -22 -23 -21 -24 -20 -26 -19 -25 -18 -26 -17 -27 -16 -28 -15 -28 -14 -28 -12 -29 -12 -29 -11 -30 -9 -30 -8 -31 -7 -30 -6 -32 -5 -30 -4 -31 -2 -32 -1 -31 0 -31 1 -32 2 -30 4 -32 5 -30 6 -31 7 -30 8 -29 9 -30 11 -29 12 -28 12 -28 14 -28 15 -27 16 -26 17 -25 18 -26 19 -23 20 -24 21 -22 22 127 126 20 -19 20 -18 22 -17 22 -17 24 -15 24 -15 24 -13 24 -12 26 -12 26 -10 26 -8 27 -8 27 -7 27 -5 27 -4 28 -3 28 -2 28 -1 27 1 28 2 28 3 27 4 27 5 27 7 27 8 26 8 26 10 26 12 24 12 25 13 23 15 23 15 23 17 22 17 20 18 21 19 126 -126z"/>
  <path class="fil0" d="M2663 5357l0 -13 -2 -14 -3 -13 -3 -13 -5 -12 -6 -12 -7 -12 -8 -11 -9 -10 -9 -10 -11 -9 -10 -7 -12 -7 -12 -6 -13 -5 -12 -4 -14 -3 -13 -1 -13 -1 -14 1 -14 1 -12 3 -14 4 -12 5 -12 6 -12 7 -11 7 -10 9 -10 10 -9 10 -7 11 -7 12 -6 12 -5 12 -4 13 -3 13 -1 14 -1 13 1 13 1 14 3 13 4 13 5 13 6 12 7 11 7 11 9 11 10 9 10 9 11 8 12 7 12 6 12 4 14 4 12 3 14 2 14 0 13 0 13 -2 14 -3 12 -4 13 -4 12 -6 12 -7 10 -8 11 -9 9 -9 9 -11 8 -11 7 -11 6 -12 5 -13 3 -13 3 -13 2 -14 0 -13z"/>
  <path class="fil0" d="M1159 5186l0 -14 -2 -13 -3 -13 -4 -13 -4 -13 -6 -12 -7 -11 -8 -11 -9 -11 -9 -9 -11 -9 -11 -8 -11 -6 -12 -7 -13 -4 -13 -4 -13 -3 -13 -2 -14 -1 -13 1 -14 2 -13 3 -13 4 -13 4 -12 7 -11 6 -11 8 -10 9 -10 9 -9 11 -7 11 -7 11 -6 12 -5 13 -4 13 -3 13 -1 13 -1 14 1 13 1 14 3 13 4 13 5 12 6 12 7 12 7 11 9 10 10 10 10 8 11 8 11 7 12 6 13 5 13 4 13 3 14 1 13 1 14 -1 13 -1 13 -3 13 -4 13 -5 12 -6 11 -7 11 -8 11 -8 9 -10 9 -10 8 -11 7 -12 6 -12 4 -12 4 -13 3 -13 2 -14 0 -13z"/>
  <path class="fil0" d="M1728 5296l-43 158 -30 -9 -29 -9 -29 -11 -29 -12 -29 -14 -28 -14 -27 -15 -27 -16 -26 -18 -25 -18 -24 -19 -24 -21 -23 -21 -22 -22 -22 -22 -20 -24 -20 -24 -19 -26 -17 -25 -17 -27 -16 -27 -14 -28 -14 -28 -12 -28 -11 -29 -11 -30 -9 -30 -8 -30 -6 -31 -6 -30 -4 -31 -4 -31 -2 -32 0 -31 0 -31 2 -31 3 -31 4 -31 5 -31 6 -31 7 -30 174 46 -6 27 -6 27 -4 28 -3 28 -2 27 -1 28 1 28 2 27 3 28 4 27 6 27 6 28 8 26 9 27 10 25 11 26 12 25 14 24 14 24 16 23 16 22 17 22 19 21 19 20 20 19 20 18 22 18 22 16 24 16 24 14 24 13 24 13 26 11 26 10 26 9 27 8 -47 173 43 -158z"/>
  <path class="fil0" d="M1811 5625l30 -8 30 -10 29 -11 29 -12 28 -13 28 -15 27 -15 27 -16 26 -17 25 -19 25 -19 24 -20 23 -21 22 -22 22 -23 20 -24 20 -24 18 -25 18 -26 16 -27 16 -26 15 -28 13 -29 13 -28 11 -29 10 -30 9 -30 8 -30 7 -30 5 -31 5 -31 3 -31 2 -31 1 -32 -1 -31 -1 -31 -3 -31 -4 -31 -5 -31 -7 -31 -7 -30 -173 47 6 26 6 28 4 27 3 28 1 27 1 28 -1 28 -1 28 -3 27 -4 28 -6 27 -6 27 -8 27 -9 26 -10 26 -11 25 -13 25 -13 24 -14 24 -16 23 -16 23 -17 21 -19 21 -19 20 -20 19 -21 19 -22 17 -22 16 -23 16 -24 14 -24 13 -25 13 -25 11 -26 10 -27 9 -26 8 46 173z"/>
 </g>
</svg>